<?xml version="1.0" encoding="iso-8859-1"?>
<!-- Generator: Adobe Illustrator 19.0.0, SVG Export Plug-In . SVG Version: 6.00 Build 0)  -->
<svg version="1.1" id="Capa_1" xmlns="http://www.w3.org/2000/svg" xmlns:xlink="http://www.w3.org/1999/xlink" x="0px" y="0px"
	 viewBox="0 0 496 496" style="enable-background:new 0 0 496 496;" xml:space="preserve">
<g>
	<g>
		<g>
			<path d="M424.504,411.608c-11.152-35.696-42.24-62.432-78.624-68.008L320,337.632v-19.968
				c18.704-15.744,32.192-37.472,37.488-62.224C376.928,252.736,392,236.176,392,216V64c0-35.288-28.712-64-64-64H168
				c-35.288,0-64,28.712-64,64v152c0,20.176,15.072,36.736,34.512,39.448c5.296,24.752,18.784,46.472,37.488,62.224v19.968
				l-25.304,5.856c-36.968,5.688-68.048,32.424-79.2,68.12L45.12,496h405.76L424.504,411.608z M359.664,238.632
				C359.792,236.424,360,234.24,360,232v-38.528c9.288,3.312,16,12.112,16,22.528C376,226.536,369.128,235.416,359.664,238.632z
				 M376,184.208c-4.672-3.536-10.056-6.184-16-7.392v-41.648l-8.792,0.872c-21.2,2.12-80.088,3.776-97.552-13.696L251.312,120H376
				V184.208z M236.944,104L252,73.888L267.056,104H236.944z M268.944,72h22.112L280,94.112L268.944,72z M292.944,104L308,73.888
				L323.056,104H292.944z M324.944,72h14.112L332,86.112L324.944,72z M340.944,104L356,73.888L371.056,104H340.944z M376,78.112
				L372.944,72H376V78.112z M168,16h160c23.736,0,43.448,17.336,47.28,40h-10.336h-17.888h-30.112h-17.888h-38.112h-17.888h-38.112
				h-17.888h-38.112h-17.888H120.72C124.552,33.336,144.264,16,168,16z M235.056,72L224,94.112L212.944,72H235.056z M211.056,104
				h-30.112L196,73.888L211.056,104z M179.056,72L168,94.112L156.944,72H179.056z M155.056,104h-30.112L140,73.888L155.056,104z
				 M120,72h3.056L120,78.112V72z M120,216c0-10.416,6.712-19.216,16-22.528V232c0,2.24,0.208,4.424,0.336,6.632
				C126.872,235.416,120,226.536,120,216z M136,135.168v41.648c-5.944,1.216-11.328,3.856-16,7.392V120h124.688l-2.344,2.344
				c-17.464,17.464-76.336,15.808-97.552,13.696L136,135.168z M152,232v-79.336c21.024,1.352,71.24,2.568,96-14.36
				c24.76,16.936,74.992,15.72,96,14.36V232c0,52.936-43.064,96-96,96C195.064,328,152,284.936,152,232z M304,328.848v26.208l-48,24
				V343.6C273.4,342.36,289.688,337.16,304,328.848z M240,343.592v35.456l-48-24V328.84C206.312,337.16,222.6,342.36,240,343.592z
				 M200,480h-54.936l6.872-55.008l-15.872-1.984L128.936,480H66.88l19.888-63.624c9.336-29.896,35.392-52.304,66.944-57.176
				L176,354.056v10.888l24,12V480z M359.936,423.008l-15.872,1.984L350.936,480H296v-64h-16v64h-64v-95.056l32,16l32-16V400h16
				v-23.056l24-12v-10.896l22.872,5.256c30.968,4.768,57.016,27.168,66.36,57.072L429.12,480h-62.056L359.936,423.008z"/>
			<path d="M196,208c11.024,0,20-8.976,20-20s-8.976-20-20-20s-20,8.976-20,20S184.976,208,196,208z M196,184c2.208,0,4,1.792,4,4
				s-1.792,4-4,4s-4-1.792-4-4S193.792,184,196,184z"/>
			<path d="M300,208c11.024,0,20-8.976,20-20s-8.976-20-20-20s-20,8.976-20,20S288.976,208,300,208z M300,184c2.208,0,4,1.792,4,4
				s-1.792,4-4,4s-4-1.792-4-4S297.792,184,300,184z"/>
			<path d="M200,232h-16c0,35.288,28.712,64,64,64c35.288,0,64-28.712,64-64h-16c0,26.472-21.528,48-48,48S200,258.472,200,232z"/>
			<rect x="240" y="416" width="16" height="16"/>
			<rect x="240" y="448" width="16" height="16"/>
		</g>
	</g>
</g>
<g>
</g>
<g>
</g>
<g>
</g>
<g>
</g>
<g>
</g>
<g>
</g>
<g>
</g>
<g>
</g>
<g>
</g>
<g>
</g>
<g>
</g>
<g>
</g>
<g>
</g>
<g>
</g>
<g>
</g>
</svg>
