<?xml version="1.0" encoding="iso-8859-1"?>
<!-- Generator: Adobe Illustrator 19.0.0, SVG Export Plug-In . SVG Version: 6.00 Build 0)  -->
<svg version="1.1" id="Capa_1" xmlns="http://www.w3.org/2000/svg" xmlns:xlink="http://www.w3.org/1999/xlink" x="0px" y="0px"
	 viewBox="0 0 512 512" style="enable-background:new 0 0 512 512;" xml:space="preserve">
<g>
	<g>
		<path d="M443.728,280.716c0.977-3.927,0.367-7.997-1.716-11.461c-2.084-3.466-5.395-5.912-9.321-6.889l-40.227-10.011
			c-4.732-1.177-9.534-1.856-14.353-2.038c3.272-14.022,4.945-28.918,4.945-44.518c0-46.229-7.224-86.056-21.472-118.375
			c-1.67-3.791-6.097-5.511-9.888-3.837c-3.79,1.671-5.508,6.098-3.837,9.888c13.213,29.973,20.198,68.814,20.198,112.324
			c0,41.276-12.564,77.004-36.334,103.321c-1.389,1.538-2.08,3.583-1.908,5.648c0.171,2.065,1.19,3.968,2.814,5.256
			c3.621,2.871,5.698,7.159,5.698,11.765c0,6.658-4.466,12.589-10.861,14.422c-3.48,0.998-5.751,4.34-5.397,7.943
			c0.626,6.378-1.608,12.63-6.13,17.152c-6.918,6.919-14.595,13.028-22.818,18.161c-3.514,2.193-4.584,6.819-2.391,10.334
			c1.422,2.278,3.868,3.529,6.37,3.529c1.356,0,2.729-0.368,3.964-1.139c7.844-4.896,15.236-10.592,22.037-16.957
			c2.852,3.822,5.467,7.8,7.841,11.909c-3.91,1.788-8.161,2.736-12.57,2.736c-4.142,0-7.5,3.357-7.5,7.5
			c0,16.739-13.618,30.358-30.357,30.358c-4.142,0-7.5,3.357-7.5,7.5c0,16.728-13.614,30.337-30.348,30.337
			c-3.234,0-6.447-0.529-9.498-1.534v-50.484c10.646-0.57,21.316-2.314,31.814-5.326c3.981-1.142,6.283-5.295,5.142-9.276
			s-5.292-6.285-9.277-5.142c-44.769,12.837-93.013,0.383-125.904-32.508c-4.523-4.522-6.757-10.774-6.13-17.151
			c0.354-3.604-1.916-6.946-5.397-7.944c-6.395-1.833-10.861-7.764-10.861-14.422c0-4.605,2.077-8.894,5.698-11.765
			c1.624-1.288,2.643-3.19,2.814-5.256c0.172-2.065-0.519-4.11-1.908-5.648c-23.77-26.317-36.334-62.047-36.334-103.321
			c0-53.977,10.504-99.566,30.377-131.844C137.282,34.835,175.046,15,225.435,15c45.979,0,81.521,16.547,105.642,49.182
			c2.462,3.331,7.158,4.036,10.489,1.573c3.331-2.462,4.035-7.158,1.573-10.489C316.036,18.594,276.434,0,225.435,0
			c-55.951,0-98.011,22.236-125.013,66.092c-14.874,24.157-32.604,68.005-32.604,139.708c0,42.375,12.302,79.581,35.65,108.084
			c-3.818,5.116-5.92,11.35-5.92,17.906c0,11.305,6.441,21.561,16.216,26.645c0.291,4.934,1.584,9.72,3.779,14.092
			c-5.865,7.318-10.942,15.205-15.181,23.507c-0.178,0.296-0.325,0.602-0.457,0.913c-5.625,11.223-9.722,23.189-12.089,35.558
			c-0.779,4.068,1.888,7.998,5.957,8.776c0.476,0.091,0.95,0.135,1.418,0.135c3.527,0,6.67-2.499,7.358-6.091
			c1.629-8.511,4.184-16.807,7.567-24.753c3.902,1.842,8.032,3.123,12.314,3.78c3.013,19.441,18.415,34.844,37.857,37.853
			c3.362,21.704,22.177,38.371,44.814,38.371c3.735,0,7.455-0.471,11.061-1.377V504.5c0,4.143,3.358,7.5,7.5,7.5
			c4.142,0,7.5-3.357,7.5-7.5v-14.939c3.114,0.667,6.3,1.017,9.498,1.017c22.636,0,41.452-16.667,44.815-38.371
			c19.442-3.009,34.844-18.41,37.856-37.852c4.281-0.656,8.409-1.934,12.306-3.772c6.39,15.055,9.773,31.363,9.773,47.918V504.5
			c0,4.143,3.358,7.5,7.5,7.5s7.5-3.357,7.5-7.5v-46.001c0-21.347-5.01-42.33-14.399-61.236c-0.179-0.481-0.412-0.948-0.695-1.395
			c-4.048-7.925-8.872-15.473-14.427-22.515c1.854-3.464,3.129-7.205,3.777-11.088l2.118,2.452
			c13.866,16.056,33.471,24.288,53.189,24.288c16.268-0.001,32.612-5.607,45.864-17.051c6.319-5.457,7.021-15.037,1.563-21.356
			l-24.683-28.581C428.678,312.644,439.356,298.282,443.728,280.716z M218.163,473.487c-3.506,1.371-7.271,2.091-11.061,2.091
			c-16.734,0-30.348-13.609-30.348-30.337c0-4.143-3.358-7.5-7.5-7.5c-16.739,0-30.357-13.619-30.357-30.358
			c0-4.143-3.358-7.5-7.5-7.5c-4.402,0-8.651-0.948-12.563-2.737c2.505-4.325,5.273-8.505,8.299-12.507
			c25.042,23.712,57.456,37.232,91.031,38.957V473.487z M428.047,360.402c0.054,0.062,0.047,0.146-0.015,0.2
			c-23.051,19.905-57.995,17.354-77.895-5.69l-3.599-4.167c4.271-5.239,6.785-11.892,6.785-18.955c0-0.404-0.032-0.803-0.048-1.205
			l3.412,0.849l18.326,17.583c1.454,1.395,3.324,2.088,5.191,2.088c1.972,0,3.94-0.772,5.413-2.308
			c2.868-2.989,2.77-7.736-0.219-10.604l-4.586-4.4c7.014-0.53,13.838-2.105,20.263-4.621L428.047,360.402z M362.249,317.361
			l-14.7-3.658c3.26-3.992,6.297-8.159,9.121-12.482l24.61-3.559c4.099-0.593,6.942-4.396,6.349-8.496
			c-0.593-4.101-4.399-6.949-8.497-6.35l-13.11,1.896c3.02-6.218,5.646-12.698,7.875-19.413c5.009-0.145,10.021,0.389,14.942,1.614
			l40.229,10.011c0.065,0.016,0.118,0.107,0.103,0.171C421.818,306.651,391.794,324.716,362.249,317.361z"/>
	</g>
</g>
<g>
	<g>
		<path d="M94.852,460.594c-4.142,0-7.5,3.357-7.5,7.5V504.5c0,4.143,3.358,7.5,7.5,7.5s7.5-3.357,7.5-7.5v-36.405
			C102.352,463.951,98.994,460.594,94.852,460.594z"/>
	</g>
</g>
<g>
	<g>
		<path d="M304.67,135.206c-22.467-17.741-50.608-27.512-79.235-27.512c-28.627,0-56.768,9.771-79.235,27.512
			c-12.894,10.181-20.289,25.442-20.289,41.872v24.211c0,68.373,44.647,123.997,99.524,123.997c22.875,0,45.196-9.866,62.853-27.782
			c17.03-17.281,29.135-41.424,34.086-67.982c1.715-9.201,2.585-18.7,2.585-28.233v-24.211
			C324.96,160.648,317.565,145.387,304.67,135.206z M155.497,146.977c19.832-15.659,44.67-24.283,69.939-24.283
			s50.108,8.624,69.939,24.284c3.757,2.966,6.851,6.54,9.218,10.519h-52.321c-10.145,0-18.397,8.253-18.397,18.397v2.305h-16.877
			v-2.305c0-10.145-8.253-18.397-18.397-18.397h-52.321C148.646,153.517,151.74,149.943,155.497,146.977z M141.084,208.155
			c-0.11-2.272-0.149-32.172-0.127-32.717c0.225-1.656,1.634-2.942,3.351-2.942h54.29c1.874,0,3.397,1.524,3.397,3.397v31.245
			c0,1.873-1.524,3.397-3.397,3.397h-54.29C142.792,210.536,141.519,209.53,141.084,208.155z M307.626,226.773
			c-4.408,23.647-15.07,45.027-30.023,60.2c-15.028,15.252-33.067,23.312-52.168,23.312c-40.162,0-73.869-36.31-82.423-84.811
			c0.43,0.031,0.859,0.063,1.297,0.063h54.29c10.145,0,18.397-8.253,18.397-18.397v-13.94h16.877v13.94
			c0,10.145,8.253,18.397,18.397,18.397h54.29c0.436,0,0.864-0.029,1.292-0.059C307.776,225.91,307.706,226.343,307.626,226.773z
			 M309.788,208.148c-0.432,1.378-1.706,2.388-3.227,2.388h-54.29c-1.874,0-3.397-1.524-3.397-3.397v-31.245
			c0-1.873,1.524-3.397,3.397-3.397h54.29c1.718,0,3.126,1.286,3.351,2.942C309.935,175.984,309.898,205.867,309.788,208.148z"/>
	</g>
</g>
<g>
	<g>
		<path d="M246.785,238.428c-4.087-0.666-7.944,2.102-8.615,6.188c-1.372,8.372-6.728,14.448-12.734,14.448
			c-6.006,0-11.362-6.076-12.734-14.448c-0.67-4.088-4.526-6.855-8.615-6.188c-4.087,0.67-6.858,4.527-6.188,8.614
			c2.567,15.657,14.148,27.021,27.537,27.021s24.97-11.364,27.537-27.021C253.643,242.955,250.873,239.098,246.785,238.428z"/>
	</g>
</g>
<g>
	<g>
		<path d="M183.573,179.392c-4.142,0-7.5,3.357-7.5,7.5v12.756c0,4.143,3.358,7.5,7.5,7.5c4.142,0,7.5-3.357,7.5-7.5v-12.756
			C191.073,182.749,187.715,179.392,183.573,179.392z"/>
	</g>
</g>
<g>
	<g>
		<path d="M267.299,179.393c-4.142,0-7.5,3.357-7.5,7.5v12.756c0,4.143,3.358,7.5,7.5,7.5s7.5-3.357,7.5-7.5v-12.756
			C274.799,182.75,271.441,179.393,267.299,179.393z"/>
	</g>
</g>
<g>
	<g>
		<path d="M255.553,361.78c-0.315-4.13-3.915-7.221-8.049-6.908c-27.713,2.115-48.204-4.101-60.513-9.687
			c-13.315-6.041-20.235-12.681-20.359-12.801c-2.941-2.896-7.674-2.871-10.584,0.063c-2.917,2.94-2.899,7.689,0.041,10.606
			c1.201,1.192,28.099,27.251,80.21,27.251c3.967,0.001,8.088-0.151,12.346-0.475C252.775,369.514,255.868,365.91,255.553,361.78z"
			/>
	</g>
</g>
<g>
	<g>
		<path d="M215.379,375.593c-18.231,0.553-37.25-10.783-37.439-10.899c-3.539-2.144-8.146-1.015-10.295,2.522
			c-2.15,3.54-1.024,8.153,2.517,10.304c0.902,0.548,21.814,13.093,43.917,13.093c0.587,0,1.176-0.009,1.764-0.027
			c4.14-0.128,7.393-3.588,7.265-7.728C222.979,378.717,219.478,375.444,215.379,375.593z"/>
	</g>
</g>
<g>
	<g>
		<path d="M257.764,270.836h-0.093c-4.142,0-7.454,3.357-7.454,7.5s3.404,7.5,7.546,7.5s7.5-3.357,7.5-7.5
			S261.906,270.836,257.764,270.836z"/>
	</g>
</g>
<g>
</g>
<g>
</g>
<g>
</g>
<g>
</g>
<g>
</g>
<g>
</g>
<g>
</g>
<g>
</g>
<g>
</g>
<g>
</g>
<g>
</g>
<g>
</g>
<g>
</g>
<g>
</g>
<g>
</g>
</svg>
